<?xml version="1.0" encoding="utf-8"?>
<svg version="1.1" viewBox="0 0 1536 569" width="1536px" height="569px" xmlns="http://www.w3.org/2000/svg">
  <g transform="matrix(0.673052, 0, 0, 0.673052, 256.573639, -231.230087)" style="">
    <g transform="matrix(1.318576, 0, 0, 1.318576, -26.733885, 458.109924)" style="">
      <path d="M 63.302 39.454 L 438.302 39.454 L 448.302 42.454 L 456.302 48.454 L 462.302 55.454 L 465.302 63.454 L 466.302 70.454 L 466.302 220.454 L 466.302 280.454 L 466.302 388.454 L 462.302 401.454 L 455.302 410.454 L 446.302 416.454 L 434.302 419.454 L 71.302 419.454 L 60.302 417.454 L 52.302 413.454 L 45.302 407.454 L 39.302 397.454 L 37.302 391.454 L 37.302 63.454 L 43.302 51.454 L 52.302 43.454 L 63.302 39.454 Z" fill="#403131"/>
      <path d="M 63.302 39.454 L 438.302 39.454 L 448.302 42.454 L 456.302 48.454 L 462.302 55.454 L 465.302 63.454 L 466.302 70.454 L 466.302 220.454 L 466.302 280.454 L 466.302 388.454 L 462.302 401.454 L 455.302 410.454 L 446.302 416.454 L 434.302 419.454 L 71.302 419.454 L 60.302 417.454 L 52.302 413.454 L 45.302 407.454 L 39.302 397.454 L 37.302 391.454 L 37.302 63.454 L 43.302 51.454 L 52.302 43.454 L 63.302 39.454 Z M 221.302 54.454 L 66.302 55.454 L 58.302 59.454 L 53.302 67.454 L 53.302 103.454 L 52.302 104.454 L 52.302 385.454 L 54.302 393.454 L 57.302 398.454 L 63.302 402.454 L 78.302 403.454 L 428.302 403.454 L 437.302 402.454 L 445.302 396.454 L 449.302 390.454 L 450.302 386.454 L 450.302 69.454 L 446.302 60.454 L 441.302 56.454 L 435.302 54.454 L 221.302 54.454 Z" fill="#452827"/>
      <path d="M 221.302 54.454 L 435.302 54.454 L 444.302 58.454 L 448.302 63.454 L 450.302 69.454 L 450.302 103.098 L 199.857 103.454 L 53.302 103.454 L 53.302 67.454 L 58.302 59.454 L 66.302 55.454 L 221.302 54.454 Z" fill="#5B4D4A"/>
      <path d="M 64.954 55.454 L 202.983 55.454 L 206.568 60.454 L 207.464 63.454 L 207.464 96.454 L 204.776 101.454 L 199.398 103.454 L 53.302 103.454 L 53.302 67.454 L 57.783 59.454 L 64.954 55.454 Z" fill="#F2B15B" style=""/>
      <path d="M 122.302 356.454 L 323.302 356.454 L 326.302 359.454 L 326.302 365.454 L 323.302 368.454 L 123.302 368.454 L 119.302 364.454 L 120.302 358.454 L 122.302 356.454 Z" fill="#7A796B"/>
      <path d="M 124.302 195.454 L 321.302 195.454 L 325.302 200.454 L 323.302 205.454 L 320.302 207.454 L 124.302 207.454 L 120.302 204.454 L 119.302 200.454 L 124.302 195.454 Z" fill="#7A796A"/>
      <path d="M 123.302 147.454 L 215.302 147.454 L 219.302 151.454 L 218.302 156.454 L 213.302 159.454 L 123.302 159.454 L 119.302 155.454 L 120.302 149.454 L 123.302 147.454 Z" fill="#7A796B"/>
      <path d="M 235.302 147.454 L 309.302 147.454 L 312.302 149.454 L 313.302 154.454 L 308.302 159.454 L 237.302 159.454 L 232.302 156.454 L 231.302 151.454 L 235.302 147.454 Z" fill="#7A796A"/>
      <path d="M 338.302 195.454 L 387.302 195.454 L 391.302 199.454 L 390.302 205.454 L 387.302 207.454 L 339.302 207.454 L 335.302 204.454 L 335.302 198.454 L 338.302 195.454 Z" fill="#7A796B"/>
      <path d="M 340.302 356.454 L 387.302 356.454 L 391.302 359.454 L 391.302 365.454 L 388.302 368.454 L 340.302 368.454 L 336.302 364.454 L 337.302 359.454 L 340.302 356.454 Z" fill="#7A796B"/>
      <path d="M 169.302 74.454 L 174.302 75.454 L 175.302 74.454 L 182.302 75.454 L 185.302 79.454 L 185.302 92.454 L 180.302 91.454 L 179.302 79.454 L 174.302 80.454 L 173.302 91.454 L 169.302 92.454 L 168.302 76.454 L 169.302 74.454 Z" fill="#562C29"/>
      <path d="M 94.302 74.454 L 97.302 74.454 L 98.302 88.454 L 104.302 87.454 L 105.302 86.454 L 106.302 75.454 L 110.302 75.454 L 110.302 92.454 L 105.302 91.454 L 104.302 92.454 L 97.302 92.454 L 93.302 88.454 L 93.302 75.454 L 94.302 74.454 Z" fill="#4B2827"/>
      <path d="M 130.302 69.454 L 134.302 69.454 L 134.302 75.454 L 140.302 75.454 L 139.302 79.454 L 134.302 79.454 L 135.302 87.454 L 141.302 89.454 L 140.302 92.454 L 133.302 92.454 L 130.302 89.454 L 130.302 79.454 L 126.302 78.454 L 127.302 75.454 L 130.302 75.454 L 130.302 69.454 Z" fill="#4D2927"/>
      <path d="M 147.302 74.454 L 154.302 75.454 L 157.302 80.454 L 158.302 92.454 L 145.302 92.454 L 143.302 89.454 L 151.302 88.454 L 152.302 85.454 L 147.302 84.454 L 148.302 81.454 L 152.302 80.454 L 147.302 79.454 L 144.302 79.454 L 144.302 75.454 L 147.302 74.454 Z" fill="#492927"/>
      <path d="M 80.302 74.454 L 86.302 74.454 L 90.302 78.454 L 89.302 80.454 L 80.302 79.454 L 79.302 80.454 L 79.302 86.454 L 84.302 88.454 L 88.302 86.454 L 90.302 87.454 L 88.302 91.454 L 86.302 92.454 L 79.302 92.454 L 74.302 87.454 L 73.302 83.454 L 75.302 78.454 L 80.302 74.454 Z" fill="#4B2A28"/>
      <path d="M 123.302 302.454 L 139.302 302.454 L 141.302 304.454 L 140.302 308.454 L 139.302 309.454 L 122.302 309.454 L 120.302 307.454 L 121.302 303.454 L 123.302 302.454 Z" fill="#7A796B"/>
      <path d="M 122.302 243.454 L 139.302 243.454 L 141.302 245.454 L 140.302 249.454 L 139.302 250.454 L 123.302 250.454 L 120.302 248.454 L 121.302 244.454 L 122.302 243.454 Z" fill="#7A796A"/>
      <path d="M 123.302 258.454 L 138.302 258.454 L 141.302 261.454 L 140.302 264.454 L 138.302 265.454 L 122.302 265.454 L 120.302 261.454 L 123.302 258.454 Z" fill="#7A796B"/>
      <path d="M 114.302 74.454 L 119.302 75.454 L 125.302 75.454 L 125.302 79.454 L 118.302 80.454 L 117.302 92.454 L 113.302 92.454 L 113.302 75.454 L 114.302 74.454 Z" fill="#4D2A28"/>
      <path d="M 162.302 74.454 L 165.302 75.454 L 165.302 92.454 L 161.302 92.454 L 161.302 75.454 L 162.302 74.454 Z" fill="#442B2A"/>
      <path d="M 146.302 81.454 L 148.302 82.454 L 147.302 84.454 L 152.302 84.454 L 152.302 88.454 L 146.302 90.454 L 142.302 88.454 L 143.302 84.454 L 146.302 81.454 Z" fill="#5A2C29"/>
      <path d="M 94.302 74.454 L 97.302 74.454 L 98.302 87.454 L 95.302 88.454 L 95.302 85.454 L 93.302 85.454 L 93.302 75.454 L 94.302 74.454 Z" fill="#462B2B"/>
      <path d="M 147.302 74.454 L 154.302 75.454 L 156.302 78.454 L 154.302 78.454 L 152.302 80.454 L 147.302 79.454 L 144.302 79.454 L 144.302 75.454 L 147.302 74.454 Z" fill="#5F2C29"/>
      <path d="M 80.302 74.454 L 86.302 74.454 L 90.302 78.454 L 89.302 80.454 L 80.302 78.454 L 80.302 74.454 Z" fill="#4F2827"/>
      <path d="M 148.302 84.454 L 153.302 85.454 L 151.302 89.454 L 147.302 89.454 L 146.302 86.454 L 148.302 84.454 Z" fill="#F5BB6C"/>
      <path d="M 82.706 196.605 L 100.885 196.605 L 103.158 198.878 L 102.022 203.423 L 100.885 204.559 L 81.569 204.559 L 79.297 202.287 L 80.433 197.742 L 82.706 196.605 Z" fill="#7A796B" style="stroke-width: 1;"/>
      <path d="M 82.706 148.925 L 100.885 148.925 L 103.158 151.198 L 102.022 155.743 L 100.885 156.879 L 81.569 156.879 L 79.297 154.607 L 80.433 150.062 L 82.706 148.925 Z" fill="#7A796B" style="stroke-width: 1;"/>
      <path d="M 82.706 249.052 L 100.885 249.052 L 103.158 251.325 L 102.022 255.87 L 100.885 257.006 L 81.569 257.006 L 79.297 254.734 L 80.433 250.189 L 82.706 249.052 Z" fill="#7A796B" style="stroke-width: 1;"/>
      <path d="M 82.706 301.5 L 100.885 301.5 L 103.158 303.773 L 102.022 308.318 L 100.885 309.454 L 81.569 309.454 L 79.297 307.182 L 80.433 302.637 L 82.706 301.5 Z" fill="#7A796B" style="stroke-width: 1;"/>
      <path d="M 82.706 359.192 L 100.885 359.192 L 103.158 361.465 L 102.022 366.01 L 100.885 367.146 L 81.569 367.146 L 79.297 364.874 L 80.433 360.329 L 82.706 359.192 Z" fill="#7A796B" style="stroke-width: 1;"/>
    </g>
    <g transform="matrix(1, 0, 0, 1, 39.270935, 438.605743)">
      <path d="M 1026 139 L 1031 127 L 1038 119 L 1047 113 L 1053 111 L 1430 111 L 1441 115 L 1451 124 L 1456 132 L 1458 139 L 1458 450 L 1454 461 L 1448 469 L 1441 475 L 1432 479 L 1428 480 L 1057 480 L 1047 477 L 1038 471 L 1031 463 L 1027 454 L 1026 450" fill="#FDEAC8"/>
      <path d="M 1026 139 L 1031 127 L 1038 119 L 1047 113 L 1053 111 L 1430 111 L 1441 115 L 1451 124 L 1456 132 L 1458 139 L 1458 450 L 1454 461 L 1448 469 L 1441 475 L 1432 479 L 1428 480 L 1057 480 L 1047 477 L 1038 471 L 1031 463 L 1027 454 L 1026 450 M 1041 448 L 1046 458 L 1055 464 L 1058 465 L 1425 465 L 1435 461 L 1440 455 L 1443 448 L 1443 183 L 1041 183" fill="#452726"/>
      <path d="M 1041 183 L 1443 183 L 1443 448 L 1438 458 L 1433 462 L 1425 465 L 1058 465 L 1048 460 L 1042 451 L 1041 448 L 1041 183 Z M 1084 207 L 1074 212 L 1070 217 L 1067 224 L 1066 361 L 1067 371 L 1072 380 L 1080 386 L 1083 387 L 1400 387 L 1410 382 L 1416 373 L 1417 370 L 1417 225 L 1413 216 L 1405 209 L 1399 207 L 1084 207 Z" fill="#FDEAC9"/>
      <path d="M 1065 126 L 1217 126 L 1430 127 L 1436 130 L 1441 136 L 1443 142 L 1443 169 L 1041 169 L 1041 143 L 1044 135 L 1048 130 L 1054 127 L 1065 126 Z" fill="#FDD294"/>
      <path d="M 1084 207 L 1399 207 L 1407 210 L 1415 219 L 1417 225 L 1417 370 L 1412 380 L 1403 386 L 1400 387 L 1083 387 L 1075 383 L 1070 377 L 1067 371 L 1066 360 L 1067 224 L 1072 214 L 1081 208 L 1084 207 Z M 1087 221 L 1082 225 L 1081 227 L 1081 367 L 1085 372 L 1087 373 L 1396 373 L 1401 370 L 1403 366 L 1403 228 L 1400 223 L 1397 221 L 1087 221 Z" fill="#432625"/>
      <path d="M 1112 251 L 1369 251 L 1374 256 L 1373 262 L 1369 265 L 1112 265 L 1108 261 L 1108 255 L 1112 251 Z" fill="#432726"/>
      <path d="M 1223 406 L 1231 406 L 1239 409 L 1247 418 L 1247 420 L 1312 420 L 1317 423 L 1318 430 L 1315 434 L 1312 435 L 1261 435 L 1247 433 L 1246 438 L 1241 444 L 1233 448 L 1223 448 L 1215 444 L 1210 438 L 1209 436 L 1151 435 L 1146 431 L 1146 424 L 1151 420 L 1209 420 L 1211 414 L 1218 408 L 1223 406 Z" fill="#462928"/>
      <path d="M 1111 290 L 1298 290 L 1301 294 L 1301 300 L 1296 304 L 1113 304 L 1108 299 L 1109 292 L 1111 290 Z" fill="#452928"/>
      <path d="M 1143 328 L 1237 328 L 1240 332 L 1239 339 L 1237 341 L 1143 341 L 1140 338 L 1140 331 L 1143 328 Z" fill="#432727"/>
      <path d="M 1442 146 L 1443 146 L 1443 169 L 1041 169 L 1041 153 L 1043 152 L 1044 159 L 1048 160 L 1048 166 L 1441 167 L 1441 152 L 1442 146 Z" fill="#F5D7AA"/>
      <path d="M 1081 411 L 1089 415 L 1099 423 L 1101 425 L 1101 430 L 1093 437 L 1084 443 L 1079 443 L 1077 441 L 1077 414 L 1081 411 Z" fill="#442726"/>
      <path d="M 1106 411 L 1111 412 L 1126 423 L 1127 429 L 1123 434 L 1111 442 L 1106 443 L 1104 441 L 1104 412 L 1106 411 Z" fill="#442726"/>
      <path d="M 1386 411 L 1396 411 L 1398 415 L 1393 422 L 1398 427 L 1399 434 L 1396 439 L 1391 442 L 1384 442 L 1378 438 L 1377 433 L 1381 432 L 1385 435 L 1390 435 L 1392 433 L 1391 429 L 1387 428 L 1383 426 L 1387 419 L 1388 418 L 1379 419 L 1377 417 L 1378 413 L 1379 412 L 1386 411 Z" fill="#472B29"/>
      <path d="M 1091 140 L 1099 140 L 1104 146 L 1104 152 L 1099 157 L 1093 158 L 1088 155 L 1086 153 L 1086 144 L 1091 140 Z" fill="#482827"/>
      <path d="M 1118 140 L 1126 140 L 1131 145 L 1131 152 L 1126 157 L 1121 158 L 1115 155 L 1113 152 L 1113 145 L 1118 140 Z" fill="#482726"/>
      <path d="M 1063 140 L 1071 140 L 1076 145 L 1076 152 L 1071 157 L 1066 158 L 1060 155 L 1058 151 L 1059 144 L 1063 140 Z" fill="#452726"/>
      <path d="M 1343 414 L 1347 415 L 1347 441 L 1343 442 L 1342 441 L 1342 423 L 1339 425 L 1334 424 L 1335 420 L 1343 414 Z" fill="#452A2A"/>
      <path d="M 1360 412 L 1365 412 L 1365 421 L 1362 439 L 1360 442 L 1356 441 L 1355 437 L 1359 414 L 1360 412 Z" fill="#4A2C2A"/>
      <path d="M 1224 420 L 1231 420 L 1235 424 L 1235 430 L 1232 434 L 1224 434 L 1221 431 L 1220 426 L 1223 421 L 1224 420 Z" fill="#F3B25C"/>
      <path d="M 1113 328 L 1120 329 L 1122 332 L 1122 338 L 1118 342 L 1112 342 L 1108 337 L 1109 331 L 1113 328 Z" fill="#452A28"/>
      <path d="M 1042 152 L 1043 152 L 1044 159 L 1048 160 L 1048 166 L 1050 168 L 1041 168 L 1041 153 L 1042 152 Z" fill="#FEE4B7"/>
      <path d="M 1102 416 L 1103 416 L 1104 422 L 1105 441 L 1110 442 L 1112 443 L 1111 444 L 1105 444 L 1103 442 L 1102 431 L 1100 430 L 1100 423 L 1101 423 L 1102 416 Z" fill="#FDF2DA"/>
      <path d="M 1044 159 L 1048 160 L 1048 166 L 1043 167 L 1044 159 Z" fill="#FEDFAA"/>
    </g>
    <g transform="matrix(1, 0, 0, 1, -59.912537, 130.428513)">
      <path d="M 1054 515 L 1429 515 L 1439 518 L 1447 524 L 1453 531 L 1457 540 L 1458 544 L 1458 848 L 1455 858 L 1449 867 L 1441 874 L 1430 879 L 1424 880 L 1060 880 L 1047 876 L 1036 868 L 1030 859 L 1027 852 L 1026 847 L 1026 544 L 1030 533 L 1036 525 L 1042 520 L 1054 515 Z" fill="#FDEAC9"/>
      <path d="M 1085 607 L 1215 607 L 1224 610 L 1229 614 L 1233 621 L 1234 625 L 1235 702 L 1254 712 L 1255 624 L 1259 616 L 1264 611 L 1270 608 L 1274 607 L 1399 607 L 1408 610 L 1414 615 L 1418 623 L 1419 628 L 1419 731 L 1416 740 L 1411 746 L 1402 750 L 1278 751 L 1286 762 L 1287 764 L 1287 773 L 1282 778 L 1274 785 L 1270 787 L 1263 787 L 1257 783 L 1247 773 L 1240 779 L 1238 780 L 1229 780 L 1224 776 L 1221 768 L 1217 750 L 1082 750 L 1073 746 L 1067 739 L 1065 733 L 1065 625 L 1069 616 L 1077 609 L 1085 607 Z" fill="#462826"/>
      <path d="M 1054 515 L 1429 515 L 1439 518 L 1447 524 L 1453 531 L 1457 540 L 1458 544 L 1458 848 L 1455 858 L 1449 867 L 1441 874 L 1430 879 L 1424 880 L 1060 880 L 1047 876 L 1036 868 L 1030 859 L 1027 852 L 1026 847 L 1026 544 L 1030 533 L 1036 525 L 1042 520 L 1054 515 Z M 1041 588 L 1041 845 L 1044 854 L 1050 861 L 1060 865 L 1423 865 L 1432 862 L 1440 855 L 1443 847 L 1443 588 L 1041 588 Z" fill="#452827"/>
      <path d="M 1060 530 L 1422 530 L 1432 532 L 1438 536 L 1442 543 L 1443 546 L 1443 573 L 1041 573 L 1041 547 L 1044 539 L 1049 534 L 1054 531 L 1060 530 Z" fill="#FDD295"/>
      <path d="M 1275 621 L 1398 621 L 1403 624 L 1405 628 L 1405 730 L 1402 735 L 1400 736 L 1387 736 L 1386 646 L 1382 645 L 1357 645 L 1354 646 L 1353 648 L 1352 736 L 1347 736 L 1346 676 L 1345 675 L 1318 675 L 1316 679 L 1315 736 L 1312 736 L 1311 697 L 1306 694 L 1286 694 L 1282 698 L 1281 727 L 1269 721 L 1269 627 L 1273 622 L 1275 621 Z" fill="#FDE1AF"/>
      <path d="M 1085 621 L 1214 621 L 1219 625 L 1220 627 L 1220 696 L 1214 696 L 1210 698 L 1208 703 L 1206 703 L 1197 692 L 1194 690 L 1185 690 L 1179 694 L 1173 699 L 1171 699 L 1163 689 L 1152 676 L 1143 665 L 1135 655 L 1133 654 L 1125 654 L 1120 657 L 1109 671 L 1099 684 L 1085 702 L 1080 709 L 1079 709 L 1079 626 L 1083 622 L 1085 621 Z" fill="#FDE1B0"/>
      <path d="M 1127 667 L 1131 669 L 1140 680 L 1152 694 L 1163 707 L 1168 712 L 1172 713 L 1178 710 L 1188 702 L 1192 704 L 1199 713 L 1208 724 L 1212 729 L 1213 736 L 1083 736 L 1080 733 L 1079 728 L 1091 712 L 1101 700 L 1111 687 L 1119 677 L 1127 667 Z" fill="#7D7A6A"/>
      <path d="M 1223 806 L 1232 806 L 1242 811 L 1247 819 L 1314 820 L 1318 825 L 1317 831 L 1313 834 L 1254 834 L 1247 832 L 1246 837 L 1240 844 L 1234 847 L 1225 848 L 1216 845 L 1209 837 L 1208 835 L 1150 834 L 1146 831 L 1146 824 L 1150 820 L 1208 819 L 1212 813 L 1218 808 L 1223 806 Z" fill="#442726"/>
      <path d="M 1083 767 L 1199 767 L 1204 771 L 1204 777 L 1200 781 L 1081 781 L 1078 778 L 1077 772 L 1080 768 L 1083 767 Z" fill="#452928"/>
      <path d="M 1221 710 L 1226 712 L 1249 724 L 1271 736 L 1269 738 L 1259 742 L 1258 743 L 1258 748 L 1268 758 L 1274 768 L 1268 773 L 1264 772 L 1255 762 L 1252 755 L 1246 755 L 1241 760 L 1234 766 L 1221 715 L 1221 710 Z" fill="#F2B058"/>
      <path d="M 1312 767 L 1392 767 L 1396 769 L 1397 771 L 1397 778 L 1394 781 L 1310 781 L 1306 777 L 1307 770 L 1312 767 Z" fill="#452928"/>
      <path d="M 1176 643 L 1185 643 L 1193 647 L 1198 655 L 1198 664 L 1194 672 L 1187 678 L 1177 679 L 1170 676 L 1165 671 L 1163 667 L 1163 655 L 1167 648 L 1173 644 L 1176 643 Z" fill="#472726"/>
      <path d="M 1364 657 L 1373 657 L 1373 736 L 1364 736 L 1364 657 Z" fill="#C75D3F"/>
      <path d="M 1403 626 L 1405 628 L 1405 730 L 1402 735 L 1400 736 L 1387 736 L 1387 647 L 1389 649 L 1390 723 L 1396 722 L 1396 725 L 1402 725 L 1403 626 Z" fill="#FAE6C5"/>
      <path d="M 1079 811 L 1085 812 L 1100 823 L 1101 829 L 1096 834 L 1083 843 L 1078 842 L 1077 841 L 1077 813 L 1079 811 Z" fill="#452827"/>
      <path d="M 1105 811 L 1110 811 L 1124 821 L 1127 825 L 1126 831 L 1110 842 L 1105 842 L 1104 841 L 1104 812 L 1105 811 Z" fill="#452827"/>
      <path d="M 1058 528 L 1275 528 L 1276 530 L 1267 531 L 1057 531 L 1058 528 Z" fill="#403131"/>
      <path d="M 1328 686 L 1336 686 L 1336 736 L 1328 736 L 1328 686 Z" fill="#C96040"/>
      <path d="M 1383 811 L 1396 811 L 1397 816 L 1392 822 L 1397 825 L 1398 827 L 1398 836 L 1392 841 L 1382 841 L 1376 836 L 1378 832 L 1382 833 L 1385 835 L 1391 834 L 1392 830 L 1391 828 L 1384 827 L 1383 823 L 1388 818 L 1378 818 L 1377 813 L 1383 811 Z" fill="#462A29"/>
      <path d="M 1063 544 L 1071 544 L 1076 549 L 1076 556 L 1071 561 L 1065 562 L 1060 559 L 1058 556 L 1058 549 L 1063 544 Z" fill="#472826"/>
      <path d="M 1118 544 L 1126 544 L 1130 548 L 1131 555 L 1128 560 L 1123 562 L 1117 561 L 1113 556 L 1113 549 L 1118 544 Z" fill="#452726"/>
      <path d="M 1090 544 L 1098 544 L 1103 549 L 1103 557 L 1098 561 L 1093 562 L 1087 559 L 1085 555 L 1086 548 L 1090 544 Z" fill="#472826"/>
      <path d="M 1320 672 L 1344 672 L 1350 676 L 1350 736 L 1347 736 L 1346 676 L 1343 674 L 1320 673 L 1320 672 Z" fill="#F9D6A3"/>
      <path d="M 1293 706 L 1300 706 L 1300 736 L 1293 736 L 1293 706 Z" fill="#CC6642"/>
      <path d="M 1343 813 L 1347 814 L 1347 840 L 1343 841 L 1342 840 L 1342 822 L 1339 824 L 1334 823 L 1335 819 L 1343 813 Z" fill="#432A29"/>
      <path d="M 1361 811 L 1365 812 L 1365 820 L 1361 840 L 1356 841 L 1355 835 L 1359 813 L 1361 811 Z" fill="#482C2A"/>
      <path d="M 1227 819 L 1233 821 L 1235 824 L 1234 831 L 1230 834 L 1223 833 L 1221 830 L 1221 823 L 1224 820 L 1227 819 Z" fill="#F2B05A"/>
      <path d="M 1205 528 L 1275 528 L 1276 530 L 1267 531 L 1216 531 L 1196 530 L 1196 529 L 1205 528 Z" fill="#423030"/>
      <path d="M 1177 654 L 1183 654 L 1187 658 L 1186 664 L 1183 667 L 1177 667 L 1173 662 L 1174 657 L 1177 654 Z" fill="#F3B35E"/>
      <path d="M 1277 528 L 1342 528 L 1343 530 L 1304 531 L 1277 530 L 1277 528 Z" fill="#423131"/>
      <path d="M 1058 528 L 1112 528 L 1112 529 L 1104 531 L 1057 531 L 1058 528 Z" fill="#473232"/>
      <path d="M 1382 528 L 1418 528 L 1421 530 L 1399 531 L 1373 531 L 1373 530 L 1382 530 L 1382 528 Z" fill="#5F3633"/>
      <path d="M 1106 809 L 1109 810 L 1105 812 L 1104 841 L 1103 841 L 1102 832 L 1103 828 L 1101 828 L 1102 814 L 1104 810 L 1106 809 Z" fill="#FEF5DF"/>
      <path d="M 1275 621 L 1280 621 L 1280 623 L 1277 626 L 1276 631 L 1272 632 L 1272 630 L 1270 630 L 1269 627 L 1273 622 L 1275 621 Z" fill="#FCE9C6"/>
      <path d="M 1256 528 L 1275 528 L 1276 530 L 1267 531 L 1256 530 L 1256 528 Z" fill="#4B3231"/>
    </g>
    <g transform="matrix(1, 0, 0, 1, 26.770555, 468.174988)">
      <path d="M 651 217 L 880 217 L 886 220 L 890 227 L 890 234 L 886 242 L 872 259 L 860 275 L 847 291 L 834 308 L 821 324 L 810 338 L 805 344 L 804 391 L 800 396 L 746 422 L 739 425 L 732 425 L 726 421 L 725 418 L 724 343 L 711 327 L 699 311 L 686 295 L 666 269 L 654 254 L 644 241 L 641 234 L 641 227 L 645 220 L 651 217 Z" fill="#B94237"/>
      <path d="M 651 217 L 880 217 L 886 220 L 890 227 L 890 234 L 886 242 L 872 259 L 860 275 L 847 291 L 834 308 L 821 324 L 810 338 L 805 344 L 804 391 L 800 396 L 746 422 L 739 425 L 732 425 L 726 421 L 725 418 L 724 343 L 711 327 L 699 311 L 686 295 L 666 269 L 654 254 L 644 241 L 641 234 L 641 227 L 645 220 L 651 217 Z M 659 234 L 661 238 L 671 251 L 679 262 L 681 262 L 683 267 L 693 279 L 703 292 L 715 307 L 727 323 L 738 337 L 739 339 L 740 407 L 746 405 L 753 401 L 763 397 L 786 386 L 789 384 L 790 341 L 794 335 L 816 307 L 829 291 L 841 275 L 854 259 L 866 243 L 871 236 L 871 234 L 659 234 Z" fill="#442625"/>
    </g>
    <g transform="matrix(0.376611, 0.392879, -0.392879, 0.376611, 425.565552, -111.748077)" style="transform-origin: 241.375px 736.640625px;">
      <path d="M 260 679 L 264 681 L 295 712 L 303 719 L 320 736 L 318 740 L 280 778 L 272 785 L 261 796 L 260 796 L 259 759 L 257 756 L 254 755 L 220 755 L 209 759 L 201 766 L 194 780 L 193 786 L 193 797 L 192 798 L 162 798 L 161 794 L 163 776 L 167 761 L 173 749 L 181 739 L 190 731 L 206 723 L 222 720 L 255 720 L 259 719 L 260 679 Z" fill="#F2AF57"/>
      <path d="M 328.452 750.17 L 308.453 770.17 L 301.453 778.17 L 288.453 790.17 L 270.453 808.17 L 265.453 811.17 L 256.453 811.17 L 250.453 808.17 L 247.453 804.17 L 246.453 801.17 L 246.453 769.17 L 219.453 770.17 L 212.453 776.17 L 208.453 784.17 L 205.453 797.17 L 202.453 799.17 L 196.453 799.17 L 193.453 797.17 L 192.453 794.17 L 192.453 786.17 L 194.453 777.17 L 200.453 766.17 L 209.453 758.17 L 220.453 754.17 L 254.453 754.17 L 259.453 757.17 L 260.453 759.17 L 261.453 795.17 L 278.453 778.17 L 286.453 771.17 L 319.453 738.17 L 317.453 734.17 L 297.453 714.17 L 289.453 707.17 L 262.453 680.17 L 260.453 679.17 L 260.453 717.17 L 257.453 720.17 L 255.453 721.17 L 222.453 721.17 L 206.453 724.17 L 190.453 732.17 L 179.453 742.17 L 170.453 756.17 L 165.453 771.17 L 163.453 783.17 L 162.453 794.17 L 160.453 798.17 L 153.453 799.17 L 148.453 795.17 L 148.453 783.17 L 151.453 766.17 L 155.453 754.17 L 161.453 742.17 L 171.453 729.17 L 181.453 720.17 L 193.453 713.17 L 211.453 707.17 L 219.453 706.17 L 246.453 706.17 L 245.453 676.17 L 247.453 669.17 L 254.453 663.17 L 263.453 662.17 L 269.453 665.17 L 303.453 699.17 L 311.453 706.17 L 328.452 723.17 C 334.622 730.405 337.82 738.669 328.452 750.17 Z" fill="#452726" style="stroke-width: 1;"/>
    </g>
    <g transform="matrix(0.542959, -0.006603, -0.006603, -0.542959, 657.662109, 199.884247)" style="transform-origin: 241.390625px 736.65625px;">
      <g>
        <path d="M 260 679 L 264 681 L 295 712 L 303 719 L 320 736 L 318 740 L 280 778 L 272 785 L 261 796 L 260 796 L 259 759 L 257 756 L 254 755 L 191.743 760.017 L 180.743 764.017 L 172.743 771.017 L 165.743 785.017 L 164.743 791.017 L 164.743 802.017 L 163.743 803.017 L 133.743 803.017 L 132.743 799.017 L 134.743 781.017 L 138.743 766.017 L 144.743 754.017 L 152.743 744.017 L 161.743 736.017 L 177.743 728.017 L 193.743 725.017 L 255 720 L 259 719 L 260 679 Z" fill="#F2AF57"/>
        <path d="M 328.452 750.17 L 308.453 770.17 L 301.453 778.17 L 288.453 790.17 L 270.453 808.17 L 265.453 811.17 L 256.453 811.17 L 250.453 808.17 L 247.453 804.17 L 246.453 801.17 L 246.453 769.17 L 231.274 768.63 L 213.101 770.938 L 200.836 773.473 L 190.469 777.475 L 183.469 783.475 L 179.469 791.475 L 176.469 804.475 L 173.469 806.475 L 167.469 806.475 L 164.469 804.475 L 163.469 801.475 L 163.469 793.475 L 165.469 784.475 L 171.469 773.475 L 180.469 765.475 L 191.469 761.475 L 209.95 758.114 L 231.357 754.503 L 254.453 754.17 L 259.453 757.17 L 260.453 759.17 L 261.453 795.17 L 278.453 778.17 L 286.453 771.17 L 319.453 738.17 L 317.453 734.17 L 297.453 714.17 L 289.453 707.17 L 262.453 680.17 L 260.453 679.17 L 260.453 717.17 L 257.453 720.17 L 255.453 721.17 L 231.73 720.978 L 212.013 724.082 L 193.459 727.65 L 177.469 731.475 L 161.469 739.475 L 150.469 749.475 L 141.469 763.475 L 136.469 778.475 L 134.469 790.475 L 133.469 801.475 L 131.469 805.475 L 124.469 806.475 L 119.469 802.475 L 119.469 790.475 L 122.469 773.475 L 126.469 761.475 L 132.469 749.475 L 142.469 736.475 L 152.469 727.475 L 164.469 720.475 L 182.469 714.475 L 190.469 713.475 L 208.809 710.121 L 230.823 706.527 L 246.453 706.17 L 245.453 676.17 L 247.453 669.17 L 254.453 663.17 L 263.453 662.17 L 269.453 665.17 L 303.453 699.17 L 311.453 706.17 L 328.452 723.17 C 334.622 730.405 337.82 738.669 328.452 750.17 Z" fill="#452726" style="stroke-width: 1;"/>
      </g>
    </g>
  </g>
</svg>
