<?xml version="1.0" encoding="UTF-8"?>
<svg version="1.1" viewBox="0 0 2048 537" width="700" height="335" xmlns="http://www.w3.org/2000/svg">
<path transform="translate(349,62)" d="m0 0h41l28 5 18 6 18 8 18 11 14 12 10 13 8 13 8 21 2 9v41l-2 9h58l16 4 10 10 1 2 4-2 12-9 2-1h99l11 7 5 4 8-6 9-5h93l14 1 14-7 8-2h27l15 5 22-1 2-11 7-29 8-14 5-5 17-8 23-9 33-12 9-2h23l11 4 6 4 8 11 3 9 1 9v11l-5 34-1 4h13l9 5 6 5 2 3 11-3 24-10 18-4h46l20 5 16 7 15 8 11 9 8 9 11 14 5-12 7-13 9-10 7-4-1-5-8-18-3-16v-11l2-18 7-17 6-9 9-11 15-11 14-7 11-3 7-1h27l20 6 9 4 10 7 11 11 9 14 5 18v22l-5 21-5 10-9 14 12-3h83l18 5 5-1 16-7 15-4 5-1h27l21 6 12 6 12 9 11 14 4 8 3 8v4l5-3 11-14 9-10 11-9 9-6 14-7 16-5 13-3h49l23 5 16 7 15 8 20 20 9 17 5 16 2 8v34l-5 17-7 12-7 9-10 8-11 8h-2l12 16 8 16 6 15 5 20 1 6v29l-5 28-5 12-10 19-12 14-12 12-13 9-25 12-19 5-11 2h-50l-27-6-21-9-14-9-4-1-22 13-21 7-15 2-22 1-22-6-12-6-10-7-10-9-3-1-7 9-10 8-16 6h-90l-17-6-4-2-5 4-7 2-22 2h-76l-16-5-6-4-5 1-12 6-14 4h-33l-17-5-11-6-6-4-9 1-27 10-21 4-22-1-12-2-16-6-12-7-13-8-4-1-15 11-18 8-16 4h-38l-24-8-16-10-17-17-10-18-6-18-1-5v-39l8-45 7-31-35 10-10 4-6 22-13 62-2 13-1 57-6 11-8 7-13 3-16 2h-85l-19-7h-5l-16 8-6 2-7 1h-38l-22-8-12-7-5 1-25 12-15 4-10 2-24-1-12-2-18-7-16-10-10-9-4-1-8 7-9 10-14 13-15 10-16 9-28 11-24 6-14 2h-46l-29-6-25-10-20-11-13-10-13-11-5-4v-2l-4-2-10-12-14-21-15-28-10-32-4-18-4-27v-67l4-31 9-41 12-36 8-18 13-26 11-19 12-17 14-19 7-7 7-8 23-23 19-13 11-8 27-14 22-10 22-6 19-4zm20 137-7 3-11 9-9 9-13 18-8 16-13 27-10 30-8 33-4 26v54l5 18 6 11 10 11 10 5 9 1 16-2 21-10 13-10 15-13 7-8 12-17 9-19 6-16 12-52 5-30v-9l-34-1-15-5-14-10-4-5-8-16v-24l4-18v-6z" fill="#4C302E"/>
<path transform="translate(343,100)" d="m0 0h53l27 7 16 8 10 7 10 9 8 13 6 18 1 5v23l-4 17-5 10-7 9-8 8-10 6-3 1h-20l-9-2-6-4 3-9 8-20 2-8v-24l-8-15-8-7-5-2-6-1h-22l-12 5-16 8-13 11-10 9-10 11-8 10-15 25-14 29-9 25-8 26-7 34-5 36v31l4 29 9 24 5 9 10 13 9 7 12 7 16 5h36l21-6 19-9 15-10 14-12 9-9 6-5h2v9l-2 16-7 22-10 15-10 13-8 8-14 11-14 9-16 8-13 5-21 5-6 1h-31l-25-4-24-8-16-8-11-7-14-12-12-14-9-15-8-16-6-16-6-21-5-31v-53l5-36 9-36 10-29 8-19 18-35 8-12 12-16 12-14 9-11 8-8 14-11 10-8 18-11 15-8 23-9 15-4z" fill="#E2A641"/>
<path transform="translate(1180,236)" d="m0 0h28l15 3 13 4 15 10 8 8 8 11 6 12 3 11v31l-8 43-12 62-1 6v33l3 4 4 1 18-3-1 16-4 13-4 6-11 11-7 5-13 5h-34l-9-5-5-5-6-7-5-15-1-4-20 20-21 12-9 3-6 1h-25l-14-4-11-7-10-9-7-10-4-10-3-12v-23l6-26 9-19 7-11 12-13 11-8 15-9 12-5 19-6 36-6 18-4 8-5 4-9 4-17v-17l-4-10-6-7-6-2h-12l-13 5-9 7-9 8-11 17-12 3-21 4-12 4h-4l2-10 6-24 5-13 7-9 12-12 13-8 23-11z" fill="#E2A641"/>
<path transform="translate(1609,240)" d="m0 0h31l16 8 10 11 6 12 2 6v38l-18 99-7 42v17l5 12 2 2 15 3 2 2 1 6-6 12-10 9-11 7-13 5-4 1h-21l-13-4-8-5-8-11-5-12-1-5v-23l10-59 17-83v-16l-5-10-5-4-4-1h-8l-10 3-11 6-5 5-7 10-6 12-6 16-6 24-6 34-8 53-2 25-1 30-1 9h-62l-28-2 1-8 10-25 6-22 9-41 24-123 5-31 1-28h19l55 2v23l-1 8 7-6 11-10 19-13 20-9z" fill="#E2A641"/>
<path transform="translate(486,248)" d="m0 0h78l1 2-10 47-12 53-16 75-2 12v19l5 10 6 4 8 1 12-2 12-7 5-4 10-16 8-24 8-36 22-111 3-21 21-1 51-1v8l-5 28-21 102-7 38-4 25v29l3 5h13l9-3v14l-9 19-7 6-14 8-18 5h-20l-17-5-5-4-7-10-5-15v-5l-11 9-12 11-8 6-26 13-8 2h-23l-18-5-9-6-7-6-8-17-2-11v-29l11-61 20-100 4-30z" fill="#E2A641"/>
<path transform="translate(1812,236)" d="m0 0 24 1 10 2 18 6 11 8 8 8 6 11 3 8v25l-7 14-5 5-7 5-13 4h-9l-2-1-2-12-2-21-6-11-4-6-6-4-3-1h-20l-7 4-6 5-4 9 1 15 3 10 9 15 11 12 13 13 11 9 18 18 9 13 8 15 6 19v28l-6 20-7 13-9 12-13 11-16 8-11 5-13 3h-50l-22-6-18-10-9-7-9-11-6-12-3-8v-32l7-18 4-6 9-10 5-4 4-2h27l11 7 6 7-1 5-10 12-3 6v24l4 8 9 10 7 3 5 1h20l12-5 7-8 2-4 2-15-1-7-8-17-7-9-46-46-11-15-8-14-5-12-1-5v-31l7-19 6-10 11-14 18-12 15-7 14-3z" fill="#E2A641"/>
<path transform="translate(1051,154)" d="m0 0h5v9l-4 26-10 44-1 6 47 1v7l-4 15-7 17-2 2-42 6-4 15-13 56-15 68-2 13v27l4 8 2 1h13l10-7h4v18l-5 16-5 8-8 7-17 9-6 2h-37l-17-9-7-8-4-9v-48l24-119 11-51h-34l-1-1 1-7 7-19 5-10 1-1 29-1 8-36 6-20 4-9 5-4 31-12z" fill="#E2A641"/>
<path transform="translate(881,242)" d="m0 0 15 1 7 3 10 9 5 12v31l-6 20-6 10-2 3h-2l-1 3-15 6-13 2h-9l1-24-3-6-6-2-7-1-9 5-10 7-12 19-7 19-7 23-13 65-5 32-1 10-1 35h-90l1-6 11-24 7-23 7-30 20-100 10-53 4-40h71l1 2-1 32-1 2 4-1 2-4 3-1 1-3 3-3h2l2-4 11-10 13-8 10-6z" fill="#E2A641"/>
<path transform="translate(1338,244)" d="m0 0h80v8l-6 34-22 109-8 43-3 21v25l4 15 7 17v8h-103l-1-9 10-17 6-18 7-26 8-44 19-108 2-18 1-24z" fill="#E2A641"/>
<path transform="translate(1386,124)" d="m0 0h27l11 6 9 7 5 9 2 12v9l-5 14-4 7h-2v2l-11 9-8 5-4 1h-20l-8-2-13-7-8-10-3-7v-24l8-15 12-10 9-5z" fill="#E2A641"/>
<path transform="translate(1190,379)" d="m0 0h7l1 4-6 34-7 28-5 9-8 10-10 8-9 4-14-1-7-3-6-5-5-8-1-3v-22l6-16 6-9 10-11 16-9 18-6z" fill="#4C302E"/>
</svg>
